<svg width="675" height="894" viewBox="0 0 675 894" fill="none" xmlns="http://www.w3.org/2000/svg">
<path d="M85.1036 348.208L85.098 348.156L85.1093 348.277L85.1036 348.208Z" fill="#FFFFBD"/>
<path d="M89.0895 366.192L89.0721 366.146L89.1069 366.239L89.0895 366.192Z" fill="#FFFFBD"/>
<path d="M143.406 247.114C143.42 247.09 143.432 247.064 143.441 247.038L143.406 247.114Z" fill="#FFFFBD"/>
<path d="M140.861 289.387C140.885 289.364 140.894 289.326 140.911 289.297C140.894 289.326 140.879 289.358 140.861 289.387Z" fill="#FFFFBD"/>
<path d="M149.84 277.595C149.826 277.606 149.813 277.619 149.802 277.633L149.84 277.595Z" fill="#FFFFBD"/>
<path d="M149.319 205.177C149.351 205.145 149.382 205.113 149.411 205.084C149.379 205.11 149.348 205.142 149.319 205.177Z" fill="#FFFFBD"/>
<path d="M107.785 201.868L107.803 201.85C107.791 201.86 107.78 201.87 107.77 201.883L107.785 201.868Z" fill="#FFFFBD"/>
<path d="M103.203 208.461L103.16 208.47C103.175 208.472 103.19 208.469 103.203 208.461Z" fill="#FFFFBD"/>
<path d="M169.161 170.547C169.185 170.525 169.209 170.502 169.231 170.477C169.206 170.499 169.183 170.523 169.161 170.547Z" fill="#FFFFBD"/>
<path d="M77.7699 211.975L77.8248 211.996L77.9258 212.027L77.9806 212.048C90.7435 212.576 104.165 211.775 115.994 206.395L115.847 206.456C124.368 202.875 132.057 197.804 140.095 193.308L139.902 193.415C156.452 184.337 170.931 172.065 187.103 162.499C196.399 159.848 206.776 160.959 216.456 160.305L216.216 160.302C216.496 160.3 216.793 160.303 217.053 160.309C202.021 167.557 186.423 174.325 173.52 185.125C173.539 185.103 173.559 185.083 173.581 185.064C173.54 185.105 173.5 185.145 173.431 185.162C173.451 185.142 173.468 185.125 173.485 185.107C164.904 191.377 156.254 197.97 148.915 205.667C148.947 205.635 148.976 205.606 149.011 205.572C146.611 208.239 144.024 210.73 141.268 213.026L141.308 212.985C134.048 217.356 126.514 221.313 118.201 223.379C109.635 225.67 102.256 231.061 95.2686 236.343C81.0694 246.85 77.1496 264.777 73.1408 280.973C69.5529 292.652 66.0054 304.382 63.1189 316.225C63.0384 316.427 62.8743 316.689 63.0736 316.848C63.3392 316.982 63.4831 316.682 63.6387 316.52C63.6531 316.506 63.6675 316.491 63.6819 316.477L63.6646 316.494L63.9066 316.252L63.8576 316.301C66.2808 313.768 67.7103 310.455 69.9342 307.746C72.4868 304.927 75.6982 302.802 78.3982 300.137C86.7492 292.138 94.4036 283.294 99.56 272.85L99.537 272.873L99.652 272.619L99.6261 272.679C103.103 263.939 104.524 254.525 107.608 245.657C108.47 243.488 109.494 241.118 111.166 239.354C113.22 237.184 115.901 235.774 118.106 233.795C120.477 231.285 121.904 228.015 124.581 225.765L124.538 225.808C129.112 221.813 134.726 219.417 139.76 216.117C117.147 241.838 98.6765 272.427 91.8411 306.278L91.8554 306.206C91.8439 306.275 91.8296 306.347 91.8211 306.419L91.8353 306.318C90.9359 309.729 89.7174 313.047 88.196 316.228L88.2621 316.086C87.8076 317.078 87.3473 318.053 86.8783 319.048L86.9819 318.817C79.8617 334.322 77.0631 357.745 88.6555 371.718L88.6295 371.692C89.3956 372.769 90.0897 373.895 90.8327 374.984L90.7489 374.871C91.6511 376.315 92.7983 377.572 93.7813 378.958L93.7408 378.918C93.894 379.123 94.0386 379.331 94.186 379.542L94.1051 379.426C94.4366 379.912 94.7186 380.429 94.9468 380.971L94.9121 380.89C94.9989 381.069 95.0973 381.254 95.1898 381.433L95.1522 381.361C95.8551 382.64 96.249 387.915 96.7906 383.045L96.7848 383.086L96.8133 382.803C96.8332 382.581 96.8473 382.359 96.847 382.134L96.8527 382.07C96.6537 377.883 94.6372 373.988 92.7451 370.292C91.1035 364.121 89.7647 357.791 90.157 351.366C90.9978 341.638 95.8645 332.46 93.7272 322.491C93.7388 322.549 93.7418 322.609 93.7505 322.67L93.6833 322.061C92.7952 305.613 97.7282 290.036 104.315 275.185C105.362 287.129 107.64 299.02 105.432 311.011C102.481 324.197 104.979 336.596 108.811 349.308C109.208 350.068 111.112 356.161 111.642 353.62C111.622 332.49 128.529 321.009 118.905 297.203L118.836 297.012L118.798 296.917L118.839 297.021C116.503 291.844 114.45 286.57 110.993 282L111.025 282.032C109.64 279.742 108.71 277.21 107.633 274.768L107.737 275.045L107.236 273.772L107.274 273.885C107.245 273.792 107.208 273.703 107.173 273.61L107.231 273.755C104.536 267.896 114.758 254.502 117.815 248.833C130.841 228.948 145.932 210.187 164.433 195.125C149.416 210.558 150.182 228.804 141.709 246.742L141.732 246.69C141.703 246.76 141.672 246.826 141.637 246.895L141.663 246.869C141.634 246.938 141.6 247.008 141.571 247.077L141.628 246.95C141.6 247.019 141.565 247.088 141.531 247.158C141.557 247.132 141.565 247.083 141.582 247.042C139.401 251.2 138.807 255.902 137.642 260.391C136.021 264.953 134.079 269.506 133.823 274.408C133.375 282.19 136.063 289.851 134.983 297.629C134.987 297.608 134.992 297.588 134.998 297.568C133.82 307.645 135.022 302.497 137.759 297.194C141.634 290.863 146.078 284.83 149.505 278.224L149.482 278.247L149.545 278.12C149.577 278.089 149.589 278.042 149.609 277.999L149.588 278.019C154.916 266.41 162.648 254.83 157.491 241.726C154.599 234.448 150.97 227.137 153.386 219.093C153.369 219.168 153.354 219.246 153.334 219.324L153.403 219.012L153.509 218.507L153.481 218.634C153.506 218.533 153.526 218.432 153.547 218.332L153.535 218.383C154.156 216.699 154.846 215.05 155.6 213.429C155.568 213.507 155.531 213.579 155.496 213.654L155.663 213.296C155.649 213.324 155.637 213.351 155.626 213.38L155.724 213.161L155.704 213.181C159.42 204.622 165.672 197.631 171.672 190.625C171.643 190.651 171.615 190.679 171.589 190.708C176.901 184.333 184.593 180.188 191.642 175.913C191.628 175.924 191.616 175.937 191.605 175.951C191.68 175.91 191.752 175.867 191.824 175.83L191.665 175.919C208.556 166.87 225.804 158.232 244.368 153.017C246.816 151.621 250.469 151.73 252.347 149.753C253.015 148.594 251.563 147.816 250.556 148.077L250.819 148.058C250.677 148.072 250.533 148.077 250.389 148.095L250.452 148.089C250.061 148.128 249.675 148.21 249.301 148.333L249.393 148.298C246.117 149.315 242.87 150.349 239.579 151.329C239.636 151.306 239.694 151.283 239.755 151.263C232.057 153.604 224.902 158.516 216.687 158.468L216.929 158.468C203.421 159.073 191.152 152.567 177.9 151.418C168.799 150.765 160.388 154.928 152.75 159.376C139.513 164.488 129.757 174.747 119.934 184.558L120.09 184.402C110.254 195.279 98.0973 203.327 84.7691 209.281C84.7893 209.261 84.8239 209.255 84.8498 209.247C82.6524 210.127 80.4551 211.191 78.13 211.557C78.0644 211.559 77.9987 211.555 77.9338 211.546C77.8793 211.533 77.8222 211.541 77.773 211.567C77.7238 211.594 77.6858 211.637 77.6659 211.689C77.646 211.741 77.6456 211.799 77.6647 211.851C77.6838 211.904 77.7211 211.948 77.7699 211.975ZM99.1407 267.924C94.0662 283.4 81.6686 294.734 69.8788 305.212C81.378 284.767 92.649 264.066 105.511 244.437C103.306 252.241 101.502 260.165 99.1407 267.924ZM118.264 231.204C116.522 234.073 113.769 236.034 111.022 237.868C113.638 235.252 116.295 232.682 118.868 230.022C118.67 230.417 118.468 230.809 118.264 231.204ZM120.349 225.953C105.969 237.322 96.8615 253.335 88.2904 269.227C81.8581 281.311 74.1926 292.681 68.2973 305.054C69.2504 301.489 70.5701 298.008 71.2547 294.388C71.2433 294.434 71.2376 294.48 71.2261 294.521C71.2719 294.284 71.3206 294.039 71.3549 293.814C76.9498 276.933 78.4329 257.929 90.1918 243.836C90.1457 243.882 90.1025 243.925 90.0564 243.971C96.634 236.816 105.086 231.131 113.919 227.222L113.844 227.245C114.248 227.13 114.652 227.015 115.064 226.903L114.989 226.926C116.953 226.499 118.883 225.985 120.847 225.587C120.689 225.717 120.513 225.829 120.349 225.953ZM92.3414 315.555C91.7632 321.121 93.2482 326.674 92.6296 332.222C90.2318 342.768 86.5589 353.479 89.765 364.333C87.276 358.824 87.4783 352.75 86.7576 346.872C86.4393 344.052 86.4577 341.205 86.8124 338.392L86.7666 338.651C87.8867 330.597 90.6895 322.946 92.3089 315.01L92.3414 315.555ZM87.8723 324.306C86.1594 331.394 83.9216 338.659 84.8521 346.021C84.9252 346.739 85.0185 347.455 85.1003 348.177L85.0944 348.113L85.1178 348.344L85.112 348.298C85.9151 353.198 85.9191 358.291 87.8299 362.945L87.8009 362.876L87.8559 363.017L87.8357 362.968L88.1137 363.695L88.0528 363.531C88.3859 364.411 88.7333 365.289 89.075 366.167L89.049 366.141L89.1069 366.297L89.0896 366.279C89.5153 367.431 90.0477 368.546 90.5023 369.692L90.4705 369.608L90.5284 369.758L90.5081 369.738C91.2298 372.102 92.6551 374.109 93.9246 376.197C92.5979 374.496 91.5998 372.57 90.374 370.797L90.4347 370.857C90.0357 370.274 89.6309 369.696 89.2089 369.13L89.232 369.153C81.1533 358.925 82.6357 345.7 84.0763 333.627L84.0276 333.889C84.9312 327.935 87.4859 322.399 89.8733 316.925C89.4468 319.415 88.5066 321.823 87.8723 324.306ZM109.466 283.914L109.605 284.111L109.432 283.862L109.4 283.831L109.466 283.914ZM108.761 282.932C118.515 296.334 123.693 314.854 115.124 330.091L115.17 329.993C113.462 334.048 112.539 338.369 111.206 342.545C111.123 341.31 110.914 340.081 110.863 338.843L110.869 339.01C110.842 338.407 110.815 337.804 110.786 337.198L110.791 337.273C110.472 331.675 109.241 326.081 111.06 320.599L111.049 320.645C114.999 307.94 112.185 295.151 108.668 282.736C108.689 282.797 108.729 282.877 108.761 282.932ZM106.271 280.846C109.702 293.664 112.952 306.947 109.429 320.132C106.68 328.955 110.79 338.067 110.08 346.924C108.754 339.322 105.4 331.997 105.773 324.175C107.369 309.491 109.524 294.761 106.134 280.115C106.184 280.355 106.221 280.6 106.271 280.846ZM140.363 290.342L140.326 290.379C140.34 290.365 140.355 290.351 140.355 290.322L140.363 290.342ZM140.559 289.961C140.524 289.996 140.51 290.051 140.484 290.1C140.507 290.077 140.513 290.042 140.53 290.013C140.562 289.982 140.573 289.924 140.596 289.883L140.539 289.993L140.559 289.961ZM150.524 229.641C151.971 237.082 156.974 243.416 156.947 251.313C157.257 256.083 155.133 260.322 153.278 264.552C150.134 273.597 145.41 281.897 140.507 290.065L140.536 290.036C139.631 291.798 138.628 293.509 137.534 295.16C145.272 273.737 144.781 250.622 150.442 228.735C150.448 229.023 150.471 229.341 150.524 229.641ZM144.349 249.043C143.308 257.406 142.604 265.813 141.094 274.112L141.131 273.873C140.235 279.985 138.845 286.013 136.975 291.898C137.044 289.518 136.498 287.174 136.224 284.808L136.23 284.866L136.203 284.638C136.212 284.681 136.212 284.721 136.218 284.762C134.736 276.779 135.87 268.854 139.086 261.46C140.398 256.64 140.974 251.592 143.406 247.131L143.377 247.16L143.472 246.95L143.429 247.045C143.958 245.891 144.525 244.758 145.043 243.605C145.03 243.64 145.015 243.675 144.997 243.709L145.043 243.616C144.821 245.434 144.578 247.237 144.349 249.043ZM174.188 166.873C174.228 166.832 174.268 166.792 174.323 166.766C172.643 168.001 170.904 169.156 169.276 170.461L169.296 170.441C166.609 172.428 164.385 174.958 161.624 176.859C161.664 176.819 161.707 176.775 161.748 176.735C161.096 177.236 160.407 177.7 159.756 178.201L159.776 178.181C159.26 178.564 158.75 178.947 158.234 179.336L158.384 179.221C157.891 179.592 157.404 179.97 156.908 180.344C156.951 180.301 156.994 180.258 157.058 180.235C156.79 180.433 156.533 180.638 156.268 180.839C156.3 180.808 156.332 180.776 156.363 180.744C139.686 191.816 122.553 202.76 103.18 208.438L103.214 208.432C103.164 208.441 103.114 208.452 103.064 208.467L103.136 208.446C98.8787 209.237 94.612 209.875 90.3367 210.509C90.7521 210.395 91.1674 210.285 91.5828 210.165C91.5345 210.182 91.4854 210.196 91.4357 210.208C97.5371 208.427 103.4 205.918 108.897 202.733L108.879 202.75L108.937 202.692L108.911 202.718C109.182 202.557 109.45 202.393 109.715 202.232C109.715 202.232 109.695 202.252 109.687 202.26C110.344 201.863 111.001 201.454 111.659 201.051C111.615 201.094 111.552 201.117 111.5 201.152C117.35 197.874 122.419 193.457 128.015 189.803C127.977 189.841 127.923 189.861 127.874 189.887C127.926 189.835 128.003 189.809 128.064 189.772L128.027 189.809C128.101 189.763 128.174 189.72 128.251 189.671C128.229 189.691 128.208 189.712 128.188 189.734C128.231 189.691 128.295 189.668 128.349 189.636L128.266 189.685C128.295 189.656 128.344 189.642 128.378 189.619C128.373 189.624 128.368 189.628 128.364 189.633C128.41 189.587 128.473 189.564 128.528 189.533C128.473 189.587 128.401 189.613 128.335 189.651C143.27 181.142 159.139 174.524 174.412 166.688C174.346 166.749 174.271 166.806 174.188 166.873ZM86.6636 210.525C99.7925 204.399 111.718 196.062 121.494 185.328C121.442 185.38 121.393 185.429 121.341 185.48C124.683 181.907 128.56 178.903 131.925 175.364C131.87 175.419 131.819 175.471 131.764 175.526C141.754 165.414 155.341 159.339 168.42 154.264C179.265 151.209 190.201 155.708 200.417 159.066C185.354 158.087 172.532 165.529 159.603 172.072C148.371 176.803 137.602 182.591 126.974 188.521C120.566 192.958 114.6 198.005 107.79 201.857L107.871 201.811C107.831 201.851 107.767 201.874 107.712 201.906L107.744 201.874C100.989 205.821 93.5946 208.569 86.0868 210.714C86.2974 210.648 86.4848 210.588 86.6723 210.516L86.6636 210.525Z" fill="#FFFFBD"/>
<path d="M137.773 297.173C137.765 297.178 137.758 297.185 137.753 297.194L137.773 297.173Z" fill="#FFFFBD"/>
<path d="M137.687 297.345C137.676 297.363 137.667 297.382 137.661 297.402C137.661 297.402 137.693 297.351 137.687 297.345Z" fill="#FFFFBD"/>
<path d="M110.074 352.484C110.063 352.452 110.049 352.421 110.034 352.392L110.074 352.484Z" fill="#FFFFBD"/>
<path d="M183.014 192.365C182.948 192.432 182.902 192.524 182.85 192.605L183.014 192.365Z" fill="#FFFFBD"/>
<path d="M195.859 182.78C195.871 182.765 195.884 182.752 195.899 182.74L195.807 182.832L195.859 182.78Z" fill="#FFFFBD"/>
<path d="M205.562 176.123C205.651 176.079 205.744 176.045 205.83 176.005C205.741 176.042 205.651 176.085 205.562 176.123Z" fill="#FFFFBD"/>
<path d="M181.94 197.393L181.975 197.358C181.951 197.381 181.928 197.405 181.902 197.431C181.916 197.42 181.928 197.407 181.94 197.393Z" fill="#FFFFBD"/>
<path d="M198.059 183.498C198.059 183.498 198.039 183.519 198.027 183.531C198.039 183.521 198.05 183.51 198.059 183.498Z" fill="#FFFFBD"/>
<path d="M263.382 182.019C263.319 182.082 263.278 182.163 263.224 182.235C263.278 182.163 263.324 182.094 263.382 182.019Z" fill="#FFFFBD"/>
<path d="M264.242 175.819C264.314 175.747 264.366 175.649 264.423 175.562C264.366 175.643 264.302 175.735 264.242 175.819Z" fill="#FFFFBD"/>
<path d="M285.069 190.583C285.082 190.573 285.094 190.561 285.104 190.548C285.095 190.562 285.083 190.574 285.069 190.583Z" fill="#FFFFBD"/>
<path d="M283.754 197.619L283.873 197.604C283.833 197.606 283.793 197.611 283.754 197.619Z" fill="#FFFFBD"/>
<path d="M356.019 165.869C356.048 165.84 356.103 165.837 356.146 165.817C356.094 165.846 356.051 165.86 356.019 165.869Z" fill="#FFFFBD"/>
<path d="M211.368 143.041C211.409 143.364 211.764 143.31 212.015 143.359L212.079 143.371L212.451 143.432L212.384 143.417C216.18 144.077 220.08 143.356 223.918 143.724C228.056 144.324 231.965 145.951 236.058 146.782C248.481 149.5 261.251 151.061 273.935 149.385L273.901 149.39L274.198 149.342C274.174 149.343 274.15 149.346 274.126 149.35C284.228 147.177 293.665 142.72 303.648 140.111C306.152 139.572 308.939 139.062 311.579 139.502C314.818 140.048 317.743 141.631 320.915 142.429C324.661 143.051 328.509 142.347 332.213 143.416L332.146 143.402C338.597 145.145 344.24 148.777 350.347 151.344C313.026 146.48 273.793 148.331 238.766 162.78C238.711 162.806 238.654 162.829 238.596 162.857L238.703 162.808C235.089 164.055 231.367 164.963 227.583 165.52C226.412 165.709 225.244 165.883 224.084 166.055C205.659 169.091 182.779 180.824 177.245 199.822C177.254 199.811 177.263 199.802 177.274 199.793C176.765 201.146 176.164 202.469 175.632 203.81L175.684 203.666C174.927 205.37 174.482 207.179 173.83 208.924L173.85 208.863C173.758 209.129 173.66 209.388 173.557 209.648C173.577 209.599 173.594 209.553 173.614 209.509C173.376 210.106 173.078 210.677 172.725 211.213C172.745 211.193 172.768 211.17 172.791 211.147C172.679 211.34 172.572 211.539 172.466 211.732L172.509 211.654C171.801 213.079 167.218 216.656 171.984 214.173C171.975 214.185 171.965 214.195 171.953 214.204C172.042 214.155 172.137 214.107 172.23 214.055C172.44 213.937 172.653 213.816 172.858 213.681C172.872 213.664 172.888 213.649 172.904 213.634C176.588 210.893 178.896 206.677 181.092 202.701C185.705 197.436 190.641 192.35 196.738 188.789C206.12 183.597 217.461 182.426 225.224 174.415C225.342 174.297 225.48 174.199 225.61 174.087C240.019 163.231 257.258 158.208 274.838 155.134C264.606 163.383 255.18 172.728 242.907 178.038C229.059 183.397 219.331 193.252 210.113 204.51C209.667 205.331 205.292 210.787 207.931 209.715C227.156 196.794 248.023 205.173 263.771 181.866C263.823 181.814 263.858 181.745 263.898 181.682C263.924 181.656 263.95 181.63 263.961 181.589C263.933 181.618 263.904 181.647 263.892 181.687C267.157 176.423 270.688 171.332 272.72 165.411C273.951 162.753 275.682 160.363 277.239 157.892C277.164 157.967 277.116 158.068 277.052 158.161C277.34 157.751 277.619 157.333 277.905 156.921C277.873 156.953 277.844 156.981 277.827 157.028C277.902 156.953 277.954 156.855 278.014 156.765C277.974 156.806 277.948 156.86 277.919 156.907C281.593 150.875 300.089 151.991 307.129 151.32C333.256 151.035 359.632 153.31 384.76 160.948C361.457 156.703 345.318 168.543 323.777 171.783L323.837 171.774L323.598 171.812L323.641 171.803L323.39 171.846L323.292 171.863C323.338 171.853 323.384 171.845 323.431 171.84C318.287 172.39 313.644 174.732 308.848 176.402C303.694 177.714 298.363 178.728 293.73 181.489C286.369 185.833 281.05 192.961 273.296 196.722C273.296 196.722 273.325 196.693 273.36 196.699C263.461 201.784 268.891 199.722 275.391 198.99C283.539 198.649 291.766 199.026 299.893 198.094L299.873 198.114L300.023 198.097L300.17 198.083L300.138 198.086C313.988 195.845 329.292 195.809 338.049 183.11C342.893 176.036 347.3 168.272 356.111 165.551C356.134 165.528 356.177 165.525 356.215 165.511L356.197 165.528C356.373 165.456 356.549 165.385 356.728 165.316L356.592 165.364C356.699 165.327 356.803 165.287 356.907 165.241C356.89 165.25 356.873 165.258 356.855 165.264C358.764 164.799 360.697 164.421 362.641 164.1L362.376 164.14C362.517 164.12 362.662 164.097 362.803 164.072C362.771 164.08 362.738 164.086 362.705 164.089C362.789 164.074 362.875 164.063 362.962 164.046L362.944 164.063C373.023 162.219 383.254 163.626 393.314 164.823L393.187 164.811C402.263 165.756 410.773 170.225 419.01 174.031L418.967 173.988L419.215 174.115L419.036 174.022C436.142 183.146 453.288 192.761 468.575 205.033C469.045 204.087 469.622 203.199 470.294 202.384C469.34 201.603 468.15 200.684 466.781 199.736C461.245 195.899 453.251 190.729 450.2 186.152L450.345 186.371C441.473 174.44 439.831 159.283 432.733 146.52C427.723 137.834 418.749 132.72 409.994 128.478C397.211 119.562 381.883 116.941 366.924 113.998C351.06 111.671 336.333 105.554 322.772 97.1158C320.617 95.6529 318.298 94.3022 316.533 92.4099C316.489 92.3518 316.45 92.2899 316.417 92.225C316.397 92.1651 316.355 92.1148 316.3 92.0839C316.245 92.0531 316.18 92.044 316.119 92.0584C316.057 92.0727 316.004 92.1096 315.968 92.1616C315.933 92.2137 315.918 92.2772 315.927 92.3398L315.944 92.4033L315.976 92.5159L315.988 92.5678C323.365 104.503 332.36 116.236 344.544 123.706L344.397 123.605C352.905 129.179 362.261 133.079 371.302 137.653L371.088 137.543C389.545 147.067 409.626 152.747 428.304 161.633C436.439 168.477 441.817 178.604 448.369 187.012L448.745 187.572C432.889 178.309 417.115 168.234 399.337 163.083L399.426 163.12L399.305 163.068C388.315 159.097 376.993 155.244 365.475 153.264C365.524 153.266 365.573 153.271 365.622 153.278C361.722 152.723 357.867 151.889 354.085 150.784C345.646 146.845 337.422 142.414 330.428 136.128C323.067 129.724 313.616 126.301 304.502 123.163C286.191 116.655 267.452 124.039 250.235 130.283C237.391 134.152 224.525 138.078 211.968 142.689C211.731 142.741 211.394 142.749 211.368 143.041ZM176.407 207.363C177.137 205.114 178.28 203.029 179.136 200.832L179.105 200.921C179.39 200.209 179.663 199.497 179.916 198.77C184.263 185.177 197.206 178.469 209.086 172.385C208.999 172.425 208.907 172.466 208.817 172.503C214.792 169.689 221.41 168.631 227.866 167.462C225.291 168.604 222.522 169.218 219.871 170.158C212.361 172.929 204.369 175.327 198.236 180.674L198.251 180.66C197.643 181.164 197.049 181.688 196.444 182.201L196.493 182.152C196.438 182.207 196.383 182.262 196.328 182.316C192.363 186.033 187.739 189.143 184.681 193.721C184.701 193.701 184.721 193.681 184.739 193.663C184.701 193.701 184.678 193.753 184.644 193.799C184.656 193.784 184.669 193.771 184.684 193.759C184.52 193.992 184.356 194.22 184.192 194.453C184.238 194.407 184.264 194.352 184.301 194.298C183.705 195.142 183.117 195.995 182.533 196.84L182.562 196.811C182.521 196.852 182.478 196.895 182.461 196.958C182.461 196.958 182.475 196.944 182.481 196.938C181.695 198.031 181.01 199.195 180.255 200.32C180.279 200.299 180.301 200.277 180.322 200.253C180.281 200.294 180.255 200.348 180.224 200.398C180.224 200.398 180.241 200.38 180.25 200.372C178.475 202.406 177.529 204.93 176.407 207.363ZM230.589 168.883C225.168 171.755 221.008 176.487 215.593 179.325C204.513 183.586 192.503 186.778 184.592 196.335C188.07 190.707 193.732 187.195 198.626 182.937C201 180.924 203.605 179.2 206.387 177.8L206.124 177.918C214.149 174.019 222.843 171.89 231.064 168.523C230.906 168.641 230.747 168.759 230.589 168.883ZM212.949 204.193C219.058 198.344 223.659 190.814 231.028 186.38C244.914 179.105 259.162 172.283 270.261 160.947C260.852 171.708 250.871 182.475 236.947 187.24C227.222 190.123 221.452 199.43 212.949 204.193ZM231.457 198.497C226.744 199.419 222.245 201.214 217.636 202.541C218.723 201.714 219.699 200.772 220.806 199.948C220.766 199.988 220.708 200.017 220.662 200.052C221.193 199.66 221.723 199.268 222.25 198.868C222.233 198.889 222.214 198.908 222.193 198.926C227.076 195.199 231.426 190.68 237.535 188.986C237.535 188.986 237.515 189.006 237.492 189.001C251.486 184.83 261.404 174.462 270.539 163.68C270.504 163.755 270.458 163.824 270.424 163.899C264.214 180.949 250.568 196.959 231.454 198.5L231.457 198.497ZM285.608 190.044C285.608 190.044 285.576 190.076 285.562 190.091L285.668 189.984C292.016 183.769 299.906 179.965 308.62 178.387C313.829 176.646 318.762 174.081 324.316 173.567L324.532 173.53C324.495 173.539 324.458 173.546 324.42 173.55C325.796 173.329 327.175 173.152 328.548 172.918C328.507 172.93 328.464 172.937 328.421 172.941C328.461 172.935 328.499 172.932 328.536 172.923C326.752 173.824 324.958 174.705 323.159 175.614C314.904 179.778 306.813 184.285 298.327 187.964C298.407 187.93 298.485 187.892 298.569 187.855C292.45 190.765 286.106 193.178 279.598 195.071C281.824 193.678 283.631 191.727 285.608 190.044ZM328.869 188.465C324.716 191.659 319.552 192.315 314.556 193.209C304.382 195.87 293.918 196.643 283.45 197.154C281.304 197.404 279.146 197.535 276.985 197.546C301.251 191.511 321.998 176.937 345.41 168.722C345.148 168.932 344.877 169.134 344.632 169.362C338.76 175.24 336.079 183.647 328.869 188.465ZM416.375 152.58L416.554 152.638C414.392 151.865 412.276 150.987 410.082 150.298L410.102 150.318C406.638 149.084 402.961 148.606 399.537 147.245L399.725 147.306C398.859 147.016 398.039 146.68 397.176 146.388L397.196 146.408L395.195 145.71L395.389 145.776C394.748 145.551 394.096 145.336 393.461 145.122L393.651 145.185L392.618 144.838L392.759 144.881C372.414 136.448 351.901 127.542 334.797 113.36L334.838 113.4L334.716 113.279L334.777 113.34C331.431 109.953 328.226 106.449 325.019 102.942C325.354 103.231 325.689 103.525 326.033 103.812C331.39 108.256 337.261 112.041 343.519 115.086L343.586 115.117L343.557 115.089L344.498 115.523L344.466 115.491L346.782 116.55L346.594 116.466C353.183 119.793 360.321 121.71 367.097 124.573L366.936 124.498L367.158 124.599L367.103 124.573L367.363 124.695L367.273 124.651L367.461 124.741L367.363 124.695L367.496 124.759L367.481 124.744L367.669 124.834L367.444 124.73C384.387 133.132 400.187 143.532 416.716 152.679L416.375 152.58ZM402.67 142.494C391.442 135.156 379.542 128.881 367.597 122.825C359.632 119.713 351.385 117.356 343.696 113.534L343.549 113.467L343.595 113.484C335.831 109.754 328.784 104.695 322.206 99.1666L322.738 99.554C336.414 107.779 351.337 113.532 367.123 115.885L366.886 115.85C372.194 116.709 377.323 118.404 382.617 119.306L382.365 119.262C397.728 122.165 411.613 130.818 424.307 139.644C433.767 147.658 436.408 160.361 439.643 171.693C431.262 157.399 416.591 150.266 402.67 142.494ZM278.144 145.974C260.933 150.789 242.971 146.445 226.175 142.109C251.875 140.101 277.671 137.704 303.454 137.427C294.989 140.189 286.661 143.386 278.144 145.974ZM323.357 140.958C319.669 141.126 316.194 139.817 312.827 138.433C316.825 139.22 320.799 140.065 324.805 140.786C324.323 140.846 323.841 140.9 323.357 140.958ZM237.458 136.489C256.223 131.286 274.384 121.076 294.383 123.106C304.929 124.696 315.296 128.943 324.294 134.576C324.63 134.86 324.959 135.148 325.3 135.432L325.239 135.371C326.837 136.9 328.492 138.342 330.067 139.888C329.856 139.804 329.651 139.725 329.432 139.639C310.224 133.495 290.034 134.98 270.283 136.886C255.318 138.409 240.248 138.374 225.35 140.564C229.163 139.265 233.124 138.338 236.826 136.762C237.022 136.67 237.244 136.587 237.458 136.489Z" fill="#FFFFBD"/>
<path d="M269.943 165.148L269.851 165.396C269.892 165.292 269.932 165.188 269.966 165.084C269.975 165.069 269.982 165.052 269.987 165.035C269.974 165.074 269.96 165.111 269.943 165.148Z" fill="#FFFFBD"/>
<path d="M283.119 197.202L283.058 197.21L283.131 197.202L283.119 197.202Z" fill="#FFFFBD"/>
<path d="M283.6 197.154L283.43 197.168C283.465 197.168 283.5 197.163 283.537 197.16L283.699 197.143L283.563 197.157L283.6 197.154Z" fill="#FFFFBD"/>
<path d="M274.568 199.588L274.5 199.597C274.523 199.595 274.545 199.592 274.568 199.588Z" fill="#FFFFBD"/>
<path d="M589.837 545.809L589.843 545.861L589.832 545.74L589.837 545.809Z" fill="#FFFFBD"/>
<path d="M585.851 527.825L585.869 527.872L585.834 527.779L585.851 527.825Z" fill="#FFFFBD"/>
<path d="M531.535 646.903C531.521 646.928 531.509 646.953 531.5 646.979L531.535 646.903Z" fill="#FFFFBD"/>
<path d="M534.079 604.63C534.056 604.653 534.047 604.691 534.03 604.72C534.047 604.691 534.062 604.659 534.079 604.63Z" fill="#FFFFBD"/>
<path d="M525.101 616.423C525.115 616.412 525.128 616.399 525.139 616.384L525.101 616.423Z" fill="#FFFFBD"/>
<path d="M525.622 688.841C525.59 688.872 525.559 688.904 525.53 688.933C525.561 688.907 525.593 688.875 525.622 688.841Z" fill="#FFFFBD"/>
<path d="M567.156 692.149L567.138 692.167C567.15 692.158 567.161 692.147 567.171 692.135L567.156 692.149Z" fill="#FFFFBD"/>
<path d="M571.738 685.556L571.781 685.548C571.766 685.546 571.751 685.549 571.738 685.556Z" fill="#FFFFBD"/>
<path d="M505.78 723.47C505.756 723.492 505.732 723.515 505.71 723.54C505.735 723.518 505.758 723.495 505.78 723.47Z" fill="#FFFFBD"/>
<path d="M597.171 682.042L597.116 682.022L597.015 681.99L596.96 681.97C584.197 681.441 570.776 682.243 558.947 687.622L559.094 687.562C550.573 691.142 542.884 696.213 534.846 700.709L535.039 700.603C518.489 709.681 504.01 721.953 487.838 731.519C478.542 734.169 468.165 733.059 458.485 733.712L458.725 733.715C458.445 733.718 458.148 733.714 457.888 733.708C472.92 726.46 488.518 719.692 501.421 708.893C501.402 708.914 501.382 708.934 501.36 708.953C501.401 708.913 501.441 708.872 501.51 708.855C501.49 708.875 501.473 708.893 501.455 708.91C510.037 702.64 518.687 696.047 526.025 688.35C525.994 688.382 525.965 688.411 525.93 688.446C528.329 685.779 530.917 683.288 533.673 680.992L533.633 681.032C540.892 676.662 548.427 672.705 556.74 670.639C565.306 668.348 572.685 662.956 579.672 657.674C593.872 647.167 597.791 629.24 601.8 613.044C605.388 601.366 608.936 589.636 611.822 577.792C611.903 577.59 612.067 577.328 611.867 577.169C611.602 577.036 611.458 577.336 611.302 577.497C611.288 577.511 611.273 577.526 611.259 577.54L611.276 577.523L611.034 577.765L611.083 577.716C608.66 580.249 607.231 583.562 605.007 586.272C602.454 589.09 599.243 591.215 596.543 593.88C588.192 601.879 580.537 610.724 575.381 621.168L575.404 621.145L575.289 621.398L575.315 621.338C571.838 630.079 570.417 639.492 567.333 648.36C566.47 650.529 565.447 652.899 563.775 654.663C561.721 656.833 559.04 658.243 556.835 660.222C554.464 662.732 553.037 666.002 550.36 668.252L550.403 668.209C545.829 672.205 540.214 674.601 535.181 677.9C557.793 652.179 576.264 621.59 583.1 587.739L583.086 587.811C583.097 587.742 583.111 587.67 583.12 587.598L583.106 587.699C584.005 584.288 585.223 580.97 586.745 577.79L586.679 577.931C587.133 576.939 587.594 575.964 588.063 574.969L587.959 575.2C595.079 559.695 597.878 536.272 586.285 522.3L586.311 522.326C585.545 521.248 584.851 520.122 584.108 519.033L584.192 519.146C583.29 517.702 582.143 516.445 581.16 515.059L581.2 515.099C581.047 514.894 580.902 514.686 580.755 514.476L580.836 514.591C580.504 514.105 580.222 513.588 579.994 513.046L580.029 513.127C579.942 512.948 579.844 512.763 579.751 512.584L579.789 512.656C579.086 511.377 578.692 506.102 578.15 510.972L578.156 510.932L578.128 511.214C578.108 511.436 578.094 511.659 578.094 511.884L578.088 511.947C578.287 516.134 580.304 520.029 582.196 523.725C583.837 529.897 585.176 536.226 584.784 542.651C583.943 552.38 579.076 561.557 581.214 571.526C581.202 571.469 581.199 571.408 581.19 571.348L581.258 571.956C582.146 588.404 577.213 603.982 570.625 618.833C569.579 606.889 567.301 594.998 569.509 583.006C572.46 569.821 569.962 557.422 566.13 544.709C565.733 543.95 563.829 537.856 563.299 540.397C563.319 561.527 546.412 573.008 556.036 596.814L556.105 597.005L556.143 597.1L556.102 596.996C558.438 602.173 560.491 607.447 563.948 612.017L563.916 611.985C565.301 614.275 566.231 616.807 567.308 619.249L567.204 618.972L567.704 620.245L567.667 620.133C567.696 620.225 567.733 620.315 567.768 620.407L567.71 620.263C570.405 626.121 560.183 639.515 557.126 645.184C544.1 665.07 529.009 683.83 510.508 698.893C525.525 683.459 524.759 665.214 533.232 647.275L533.209 647.327C533.238 647.258 533.269 647.191 533.304 647.122L533.278 647.148C533.307 647.079 533.341 647.01 533.37 646.94L533.312 647.067C533.341 646.998 533.376 646.929 533.41 646.86C533.384 646.886 533.376 646.935 533.358 646.975C535.54 642.817 536.134 638.115 537.299 633.627C538.92 629.064 540.862 624.511 541.117 619.609C541.566 611.828 538.877 604.166 539.958 596.388C539.954 596.409 539.949 596.429 539.943 596.449C541.121 586.372 539.919 591.521 537.182 596.823C533.307 603.154 528.863 609.187 525.436 615.793L525.459 615.77L525.396 615.897C525.364 615.929 525.352 615.975 525.332 616.018L525.352 615.998C520.025 627.607 512.293 639.187 517.45 652.291C520.342 659.569 523.971 666.88 521.555 674.924C521.572 674.849 521.586 674.771 521.607 674.694L521.538 675.005L521.432 675.51L521.46 675.383C521.435 675.484 521.414 675.585 521.394 675.686L521.406 675.634C520.785 677.318 520.095 678.968 519.341 680.588C519.373 680.51 519.41 680.438 519.444 680.363L519.278 680.721C519.292 680.694 519.304 680.666 519.315 680.637L519.217 680.856L519.237 680.836C515.521 689.395 509.269 696.386 503.269 703.393C503.298 703.366 503.326 703.338 503.352 703.309C498.04 709.684 490.348 713.829 483.299 718.104C483.313 718.093 483.325 718.081 483.336 718.067C483.261 718.107 483.189 718.15 483.117 718.188L483.276 718.098C466.385 727.147 449.136 735.785 430.573 741C428.125 742.396 424.472 742.287 422.594 744.264C421.926 745.423 423.378 746.201 424.385 745.94L424.122 745.96C424.264 745.945 424.408 745.94 424.552 745.923L424.489 745.928C424.88 745.889 425.266 745.807 425.64 745.685L425.547 745.719C428.824 744.702 432.071 743.668 435.362 742.689C435.305 742.712 435.247 742.735 435.186 742.755C442.884 740.414 450.039 735.501 458.254 735.55L458.012 735.549C471.52 734.945 483.789 741.451 497.041 742.6C506.142 743.253 514.553 739.089 522.191 734.642C535.428 729.529 545.184 719.271 555.007 709.459L554.851 709.615C564.687 698.739 576.844 690.691 590.172 684.736C590.152 684.756 590.117 684.762 590.091 684.771C592.289 683.891 594.486 682.826 596.811 682.46C596.877 682.458 596.942 682.462 597.007 682.472C597.062 682.484 597.119 682.476 597.168 682.45C597.217 682.424 597.255 682.38 597.275 682.328C597.295 682.276 597.295 682.218 597.276 682.166C597.257 682.113 597.22 682.069 597.171 682.042ZM575.8 626.094C580.875 610.617 593.272 599.283 605.062 588.805C593.563 609.25 582.292 629.952 569.43 649.581C571.635 641.776 573.439 633.852 575.8 626.094ZM556.677 662.813C558.419 659.945 561.172 657.983 563.919 656.149C561.302 658.766 558.646 661.336 556.073 663.995C556.271 663.6 556.473 663.208 556.677 662.813ZM554.592 668.065C568.972 656.696 578.079 640.683 586.65 624.79C593.083 612.706 600.748 601.336 606.644 588.963C605.69 592.528 604.371 596.009 603.686 599.629C603.698 599.583 603.703 599.537 603.715 599.497C603.669 599.733 603.62 599.978 603.586 600.203C597.991 617.084 596.508 636.088 584.749 650.182C584.795 650.136 584.838 650.092 584.885 650.046C578.307 657.202 569.855 662.886 561.022 666.795L561.097 666.772C560.693 666.887 560.289 667.002 559.877 667.114L559.952 667.091C557.988 667.518 556.058 668.032 554.093 668.43C554.252 668.301 554.428 668.189 554.592 668.065ZM582.6 578.462C583.178 572.897 581.693 567.343 582.311 561.795C584.709 551.25 588.382 540.538 585.176 529.685C587.665 535.194 587.463 541.267 588.183 547.146C588.502 549.965 588.483 552.812 588.129 555.626L588.174 555.366C587.054 563.421 584.251 571.072 582.632 579.007L582.6 578.462ZM587.069 569.711C588.782 562.624 591.019 555.358 590.089 547.997C590.016 547.278 589.922 546.562 589.841 545.841L589.846 545.904L589.823 545.673L589.829 545.72C589.026 540.819 589.022 535.726 587.111 531.072L587.14 531.142L587.085 531L587.105 531.049L586.827 530.322L586.888 530.486C586.555 529.606 586.208 528.728 585.866 527.851L585.892 527.877L585.834 527.721L585.851 527.738C585.426 526.586 584.893 525.472 584.439 524.326L584.47 524.409L584.413 524.259L584.433 524.279C583.711 521.915 582.286 519.908 581.016 517.82C582.343 519.521 583.341 521.447 584.567 523.221L584.506 523.16C584.905 523.743 585.31 524.321 585.732 524.887L585.709 524.864C593.788 535.092 592.305 548.317 590.865 560.39L590.913 560.128C590.01 566.082 587.455 571.619 585.068 577.092C585.494 574.602 586.434 572.194 587.069 569.711ZM565.475 610.103L565.336 609.907L565.509 610.155L565.541 610.187L565.475 610.103ZM566.18 611.085C556.426 597.683 551.248 579.164 559.817 563.926L559.771 564.024C561.479 559.969 562.402 555.648 563.735 551.472C563.818 552.707 564.027 553.937 564.078 555.175L564.072 555.007C564.099 555.61 564.126 556.213 564.155 556.819L564.149 556.744C564.469 562.342 565.7 567.936 563.881 573.419L563.892 573.373C559.942 586.077 562.756 598.866 566.273 611.281C566.252 611.221 566.212 611.14 566.18 611.085ZM568.67 613.172C565.239 600.353 561.989 587.07 565.512 573.885C568.261 565.063 564.151 555.951 564.86 547.094C566.187 554.696 569.541 562.02 569.168 569.842C567.572 584.527 565.417 599.257 568.807 613.902C568.757 613.662 568.719 613.417 568.67 613.172ZM534.578 603.675L534.615 603.638C534.601 603.652 534.586 603.667 534.586 603.696L534.578 603.675ZM534.382 604.056C534.416 604.021 534.431 603.967 534.457 603.918C534.434 603.941 534.428 603.975 534.411 604.004C534.379 604.036 534.367 604.094 534.344 604.134L534.402 604.024L534.382 604.056ZM524.417 664.376C522.97 656.936 517.967 650.601 517.994 642.704C517.684 637.934 519.808 633.695 521.663 629.465C524.807 620.421 529.531 612.12 534.434 603.952L534.405 603.981C535.31 602.219 536.312 600.508 537.407 598.858C529.669 620.28 530.159 643.396 524.499 665.282C524.493 664.994 524.47 664.676 524.417 664.376ZM530.592 644.975C531.633 636.611 532.337 628.204 533.847 619.905L533.809 620.144C534.706 614.032 536.096 608.004 537.966 602.119C537.897 604.499 538.443 606.843 538.717 609.21L538.711 609.152L538.737 609.38C538.729 609.336 538.729 609.296 538.723 609.256C540.205 617.239 539.071 625.163 535.855 632.557C534.543 637.377 533.967 642.426 531.535 646.886L531.564 646.857L531.469 647.068L531.512 646.973C530.982 648.126 530.416 649.259 529.898 650.413C529.911 650.377 529.926 650.342 529.944 650.309L529.898 650.401C530.12 648.584 530.363 646.781 530.592 644.975ZM500.753 727.145C500.713 727.185 500.673 727.226 500.618 727.251C502.298 726.016 504.037 724.861 505.665 723.556L505.645 723.576C508.331 721.589 510.556 719.059 513.317 717.158C513.277 717.199 513.234 717.242 513.193 717.282C513.845 716.781 514.534 716.317 515.185 715.816L515.165 715.836C515.681 715.453 516.191 715.07 516.707 714.681L516.557 714.797C517.05 714.425 517.537 714.048 518.033 713.673C517.99 713.717 517.946 713.76 517.883 713.783C518.151 713.584 518.408 713.38 518.673 713.178C518.641 713.21 518.609 713.241 518.578 713.273C535.255 702.201 552.388 691.257 571.761 685.579L571.727 685.585C571.777 685.576 571.827 685.565 571.877 685.551L571.804 685.571C576.062 684.78 580.329 684.143 584.604 683.508C584.189 683.623 583.773 683.732 583.358 683.853C583.406 683.836 583.455 683.821 583.505 683.809C577.404 685.59 571.541 688.1 566.044 691.285L566.062 691.267L566.004 691.325L566.03 691.299C565.759 691.46 565.491 691.624 565.226 691.786C565.226 691.786 565.246 691.766 565.254 691.757C564.597 692.154 563.94 692.563 563.282 692.966C563.326 692.923 563.389 692.9 563.441 692.865C557.591 696.144 552.522 700.56 546.926 704.214C546.963 704.177 547.018 704.157 547.067 704.131C547.015 704.182 546.937 704.208 546.877 704.246L546.914 704.208C546.839 704.254 546.767 704.298 546.69 704.347C546.712 704.326 546.733 704.305 546.753 704.283C546.71 704.326 546.646 704.349 546.592 704.381L546.675 704.332C546.646 704.361 546.597 704.375 546.563 704.398C546.568 704.394 546.573 704.389 546.577 704.384C546.531 704.43 546.468 704.453 546.413 704.485C546.467 704.43 546.54 704.404 546.606 704.367C531.671 712.875 515.802 719.493 500.528 727.329C500.595 727.269 500.67 727.211 500.753 727.145ZM588.277 683.493C575.148 689.618 563.223 697.955 553.447 708.69C553.499 708.638 553.548 708.589 553.6 708.537C550.258 712.11 546.381 715.114 543.016 718.653C543.071 718.598 543.122 718.547 543.177 718.492C533.187 728.603 519.6 734.678 506.521 739.753C495.676 742.809 484.74 738.31 474.524 734.952C489.587 735.93 502.408 728.489 515.338 721.945C526.57 717.214 537.339 711.426 547.966 705.497C554.375 701.059 560.341 696.012 567.151 692.161L567.07 692.207C567.11 692.166 567.174 692.143 567.228 692.112L567.197 692.143C573.952 688.197 581.346 685.448 588.854 683.303C588.644 683.369 588.456 683.43 588.269 683.501L588.277 683.493Z" fill="#FFFFBD"/>
<path d="M537.167 596.844C537.176 596.839 537.183 596.832 537.188 596.823L537.167 596.844Z" fill="#FFFFBD"/>
<path d="M537.253 596.672C537.265 596.654 537.274 596.635 537.28 596.616C537.28 596.616 537.248 596.666 537.253 596.672Z" fill="#FFFFBD"/>
<path d="M564.867 541.534C564.878 541.565 564.892 541.596 564.907 541.626L564.867 541.534Z" fill="#FFFFBD"/>
<path d="M491.926 701.652C491.993 701.586 492.039 701.493 492.091 701.413L491.926 701.652Z" fill="#FFFFBD"/>
<path d="M479.082 711.237C479.07 711.252 479.057 711.266 479.042 711.277L479.134 711.185L479.082 711.237Z" fill="#FFFFBD"/>
<path d="M469.379 717.895C469.29 717.938 469.197 717.972 469.111 718.013C469.2 717.975 469.29 717.932 469.379 717.895Z" fill="#FFFFBD"/>
<path d="M493.001 696.625L492.966 696.659C492.99 696.636 493.013 696.613 493.039 696.587C493.025 696.598 493.012 696.611 493.001 696.625Z" fill="#FFFFBD"/>
<path d="M476.882 710.519C476.882 710.519 476.902 710.498 476.914 710.487C476.902 710.496 476.891 710.507 476.882 710.519Z" fill="#FFFFBD"/>
<path d="M411.559 711.999C411.622 711.935 411.663 711.855 411.717 711.783C411.663 711.855 411.617 711.924 411.559 711.999Z" fill="#FFFFBD"/>
<path d="M410.699 718.198C410.627 718.27 410.575 718.368 410.518 718.455C410.575 718.374 410.638 718.282 410.699 718.198Z" fill="#FFFFBD"/>
<path d="M389.872 703.434C389.859 703.444 389.847 703.456 389.837 703.47C389.846 703.456 389.858 703.443 389.872 703.434Z" fill="#FFFFBD"/>
<path d="M391.187 696.399L391.068 696.413C391.108 696.412 391.148 696.407 391.187 696.399Z" fill="#FFFFBD"/>
<path d="M318.922 728.149C318.893 728.177 318.838 728.18 318.795 728.201C318.847 728.172 318.89 728.157 318.922 728.149Z" fill="#FFFFBD"/>
<path d="M463.573 750.977C463.532 750.653 463.177 750.708 462.926 750.658L462.862 750.647L462.49 750.586L462.556 750.6C458.761 749.94 454.861 750.662 451.023 750.293C446.885 749.693 442.976 748.066 438.883 747.235C426.46 744.517 413.69 742.956 401.005 744.633L401.04 744.627L400.743 744.676C400.767 744.674 400.791 744.671 400.815 744.667C390.713 746.84 381.275 751.297 371.293 753.906C368.789 754.445 366.002 754.955 363.361 754.516C360.123 753.969 357.198 752.387 354.026 751.589C350.28 750.966 346.432 751.671 342.728 750.601L342.795 750.615C336.343 748.872 330.7 745.241 324.594 742.673C361.915 747.537 401.148 745.686 436.175 731.238C436.229 731.212 436.287 731.189 436.345 731.16L436.238 731.209C439.852 729.962 443.574 729.055 447.358 728.497C448.529 728.309 449.697 728.134 450.857 727.963C469.282 724.926 492.162 713.194 497.696 694.195C497.687 694.206 497.678 694.216 497.667 694.224C498.176 692.871 498.777 691.548 499.309 690.207L499.257 690.351C500.014 688.647 500.459 686.838 501.111 685.093L501.091 685.154C501.183 684.889 501.281 684.629 501.384 684.37C501.364 684.419 501.347 684.465 501.327 684.508C501.565 683.911 501.863 683.341 502.216 682.804C502.196 682.824 502.173 682.847 502.15 682.87C502.262 682.677 502.369 682.478 502.475 682.285L502.432 682.363C503.14 680.938 507.723 677.361 502.956 679.845C502.966 679.833 502.976 679.822 502.988 679.813C502.899 679.862 502.804 679.911 502.711 679.963C502.501 680.081 502.288 680.201 502.083 680.337C502.068 680.353 502.053 680.369 502.037 680.383C498.353 683.125 496.045 687.34 493.848 691.316C489.236 696.581 484.3 701.667 478.203 705.228C468.821 710.421 457.48 711.591 449.717 719.602C449.599 719.72 449.461 719.818 449.331 719.93C434.922 730.786 417.683 735.809 400.103 738.884C410.335 730.634 419.76 721.289 432.033 715.98C445.882 710.62 455.61 700.765 464.827 689.508C465.274 688.686 469.649 683.23 467.01 684.302C447.785 697.223 426.918 688.844 411.17 712.151C411.118 712.203 411.083 712.272 411.043 712.336C411.017 712.362 410.991 712.387 410.98 712.428C411.008 712.399 411.037 712.37 411.049 712.33C407.784 717.594 404.253 722.685 402.221 728.606C400.99 731.265 399.259 733.654 397.702 736.125C397.776 736.05 397.825 735.949 397.889 735.857C397.601 736.266 397.321 736.684 397.036 737.096C397.068 737.065 397.097 737.036 397.114 736.99C397.039 737.065 396.987 737.163 396.927 737.252C396.967 737.212 396.993 737.157 397.022 737.111C393.348 743.142 374.851 742.026 367.812 742.697C341.685 742.982 315.309 740.707 290.181 733.069C313.484 737.314 329.623 725.474 351.164 722.234L351.103 722.243L351.343 722.206L351.3 722.214L351.551 722.171L351.649 722.154C351.603 722.165 351.557 722.172 351.51 722.177C356.654 721.627 361.296 719.285 366.093 717.615C371.247 716.303 376.578 715.289 381.211 712.529C388.571 708.185 393.891 701.056 401.645 697.296C401.645 697.296 401.616 697.324 401.581 697.319C411.48 692.234 406.05 694.295 399.55 695.028C391.402 695.369 383.175 694.991 375.048 695.923L375.068 695.903L374.918 695.92L374.771 695.934L374.803 695.932C360.953 698.172 345.649 698.209 336.892 710.907C332.048 717.981 327.641 725.746 318.83 728.466C318.807 728.489 318.764 728.492 318.726 728.506L318.743 728.489C318.568 728.561 318.392 728.633 318.213 728.702L318.348 728.653C318.242 728.69 318.138 728.73 318.034 728.777C318.051 728.767 318.068 728.759 318.086 728.754C316.176 729.218 314.244 729.597 312.299 729.917L312.565 729.877C312.423 729.897 312.279 729.92 312.138 729.946C312.17 729.937 312.203 729.931 312.236 729.929C312.152 729.943 312.066 729.954 311.979 729.971L311.997 729.954C301.917 731.799 291.687 730.391 281.627 729.194L281.754 729.206C272.678 728.262 264.168 723.792 255.931 719.986L255.974 720.03L255.726 719.902L255.905 719.995C238.799 710.871 221.653 701.257 206.366 688.984C205.896 689.93 205.319 690.819 204.647 691.634C205.601 692.414 206.791 693.333 208.16 694.281C213.696 698.118 221.69 703.288 224.74 707.865L224.596 707.646C233.468 719.578 235.11 734.734 242.208 747.497C247.217 756.183 256.192 761.297 264.947 765.539C277.73 774.455 293.058 777.076 308.017 780.019C323.881 782.346 338.608 788.463 352.169 796.901C354.324 798.364 356.643 799.715 358.408 801.607C358.452 801.666 358.491 801.727 358.524 801.792C358.544 801.852 358.586 801.903 358.641 801.933C358.696 801.964 358.761 801.973 358.822 801.959C358.883 801.945 358.937 801.908 358.973 801.856C359.008 801.804 359.023 801.74 359.014 801.678L358.997 801.614L358.965 801.501L358.953 801.449C351.576 789.514 342.581 777.781 330.397 770.312L330.544 770.413C322.036 764.838 312.679 760.939 303.639 756.364L303.853 756.474C285.396 746.95 265.315 741.27 246.637 732.384C238.502 725.54 233.124 715.414 226.572 707.005L226.196 706.445C242.052 715.709 257.826 725.783 275.604 730.935L275.515 730.897L275.636 730.949C286.626 734.92 297.948 738.773 309.466 740.754C309.417 740.751 309.368 740.747 309.319 740.739C313.218 741.294 317.074 742.128 320.856 743.233C329.295 747.172 337.519 751.604 344.513 757.889C351.874 764.293 361.325 767.717 370.439 770.854C388.75 777.362 407.489 769.978 424.706 763.735C437.55 759.866 450.416 755.939 462.973 751.328C463.209 751.276 463.547 751.268 463.573 750.977ZM498.534 686.654C497.804 688.903 496.661 690.988 495.804 693.186L495.836 693.096C495.551 693.808 495.278 694.521 495.025 695.248C490.678 708.841 477.735 715.549 465.855 721.632C465.942 721.592 466.034 721.552 466.123 721.514C460.149 724.328 453.531 725.387 447.075 726.555C449.65 725.413 452.419 724.799 455.07 723.86C462.58 721.088 470.572 718.69 476.705 713.343L476.69 713.357C477.298 712.853 477.892 712.329 478.497 711.816L478.448 711.865C478.503 711.81 478.558 711.756 478.613 711.701C482.578 707.984 487.202 704.874 490.26 700.296C490.24 700.316 490.219 700.337 490.202 700.354C490.24 700.316 490.263 700.265 490.297 700.218C490.285 700.233 490.272 700.247 490.257 700.259C490.421 700.025 490.585 699.798 490.749 699.564C490.703 699.61 490.677 699.665 490.64 699.72C491.236 698.875 491.823 698.022 492.408 697.177L492.379 697.206C492.42 697.166 492.463 697.122 492.48 697.059C492.48 697.059 492.466 697.073 492.46 697.079C493.246 695.987 493.931 694.822 494.686 693.698C494.662 693.718 494.64 693.74 494.619 693.764C494.66 693.724 494.686 693.669 494.717 693.62C494.717 693.62 494.7 693.637 494.691 693.646C496.466 691.611 497.412 689.088 498.534 686.654ZM444.352 725.135C449.773 722.262 453.933 717.53 459.348 714.693C470.428 710.432 482.438 707.239 490.349 697.682C486.871 703.31 481.208 706.822 476.315 711.08C473.94 713.093 471.336 714.817 468.554 716.217L468.817 716.099C460.792 719.998 452.098 722.127 443.877 725.495C444.035 725.377 444.194 725.258 444.352 725.135ZM461.992 689.824C455.882 695.673 451.282 703.203 443.913 707.637C430.027 714.912 415.779 721.734 404.68 733.07C414.089 722.309 424.069 711.543 437.994 706.778C447.719 703.894 453.489 694.588 461.992 689.824ZM443.484 695.521C448.197 694.598 452.696 692.804 457.305 691.477C456.218 692.303 455.241 693.246 454.135 694.069C454.175 694.029 454.233 694 454.279 693.966C453.748 694.357 453.218 694.749 452.69 695.149C452.708 695.129 452.727 695.109 452.748 695.092C447.865 698.819 443.515 703.337 437.406 705.031C437.406 705.031 437.426 705.011 437.449 705.017C423.455 709.187 413.537 719.555 404.402 730.337C404.437 730.262 404.483 730.193 404.517 730.118C410.727 713.068 424.373 697.058 443.487 695.518L443.484 695.521ZM389.333 703.973C389.333 703.973 389.365 703.941 389.379 703.927L389.273 704.033C382.925 710.249 375.035 714.052 366.321 715.63C361.112 717.372 356.179 719.936 350.625 720.45L350.409 720.488C350.446 720.478 350.483 720.472 350.521 720.468C349.145 720.688 347.766 720.865 346.393 721.1C346.434 721.088 346.477 721.08 346.52 721.077C346.479 721.083 346.442 721.085 346.404 721.094C348.189 720.193 349.983 719.313 351.782 718.403C360.037 714.24 368.128 709.732 376.614 706.053C376.534 706.088 376.456 706.125 376.372 706.163C382.491 703.252 388.835 700.839 395.342 698.946C393.117 700.34 391.31 702.291 389.333 703.973ZM346.072 705.553C350.225 702.358 355.389 701.702 360.385 700.808C370.559 698.148 381.023 697.374 391.49 696.863C393.636 696.613 395.795 696.482 397.956 696.471C373.689 702.506 352.943 717.081 329.531 725.295C329.793 725.085 330.064 724.883 330.309 724.656C336.181 718.777 338.862 710.37 346.072 705.553ZM258.566 741.437L258.387 741.379C260.549 742.153 262.665 743.03 264.859 743.72L264.839 743.699C268.303 744.933 271.98 745.411 275.404 746.772L275.216 746.711C276.082 747.001 276.902 747.337 277.765 747.63L277.745 747.609L279.745 748.307L279.552 748.241C280.193 748.467 280.845 748.681 281.48 748.896L281.29 748.832L282.323 749.179L282.182 749.136C302.527 757.569 323.04 766.475 340.144 780.658L340.103 780.617L340.225 780.738L340.164 780.678C343.51 784.064 346.715 787.568 349.922 791.076C349.587 790.787 349.252 790.492 348.908 790.206C343.551 785.761 337.68 781.976 331.422 778.932L331.355 778.9L331.384 778.929L330.443 778.495L330.475 778.526L328.159 777.467L328.347 777.551C321.758 774.224 314.62 772.307 307.844 769.444L308.005 769.519L307.783 769.418L307.838 769.444L307.578 769.322L307.667 769.366L307.48 769.276L307.578 769.322L307.445 769.259L307.46 769.273L307.272 769.183L307.497 769.288C290.554 760.885 274.754 750.485 258.225 741.339L258.566 741.437ZM272.271 751.523C283.499 758.862 295.399 765.136 307.344 771.192C315.309 774.305 323.556 776.662 331.245 780.484L331.392 780.55L331.346 780.533C339.11 784.263 346.157 789.322 352.735 794.851L352.203 794.463C338.527 786.239 323.604 780.485 307.818 778.132L308.055 778.167C302.747 777.308 297.617 775.613 292.324 774.712L292.575 774.755C277.212 771.852 263.328 763.2 250.634 754.373C241.174 746.359 238.533 733.657 235.298 722.324C243.679 736.618 258.35 743.751 272.271 751.523ZM396.797 748.043C414.008 743.228 431.97 747.572 448.766 751.909C423.066 753.916 397.27 756.313 371.487 756.59C379.952 753.829 388.28 750.631 396.797 748.043ZM351.584 753.06C355.271 752.892 358.747 754.201 362.114 755.584C358.116 754.797 354.142 753.952 350.136 753.231C350.618 753.171 351.099 753.117 351.584 753.06ZM437.483 757.528C418.718 762.731 400.556 772.941 380.558 770.911C370.012 769.321 359.645 765.074 350.646 759.441C350.311 759.158 349.982 758.869 349.641 758.586L349.702 758.646C348.104 757.118 346.449 755.676 344.874 754.13C345.085 754.214 345.29 754.292 345.509 754.379C364.717 760.522 384.907 759.038 404.658 757.132C419.623 755.608 434.693 755.643 449.59 753.453C445.778 754.752 441.817 755.679 438.115 757.255C437.919 757.347 437.696 757.431 437.483 757.528Z" fill="#FFFFBD"/>
<path d="M404.997 728.869L405.089 728.621C405.049 728.725 405.009 728.829 404.974 728.933C404.966 728.948 404.959 728.965 404.954 728.982C404.967 728.944 404.981 728.906 404.997 728.869Z" fill="#FFFFBD"/>
<path d="M391.821 696.816L391.883 696.807L391.81 696.816L391.821 696.816Z" fill="#FFFFBD"/>
<path d="M391.34 696.863L391.511 696.849C391.476 696.849 391.441 696.855 391.404 696.857L391.242 696.875L391.378 696.86L391.34 696.863Z" fill="#FFFFBD"/>
<path d="M400.373 694.43L400.441 694.421C400.418 694.422 400.396 694.425 400.373 694.43Z" fill="#FFFFBD"/>
</svg>
