<svg width="481" height="482" viewBox="0 0 481 482" fill="none" xmlns="http://www.w3.org/2000/svg">
<path d="M85.1036 348.208L85.098 348.156L85.1093 348.277L85.1036 348.208Z" fill="#FFFFBD"/>
<path d="M89.0895 366.192L89.0721 366.146L89.1069 366.239L89.0895 366.192Z" fill="#FFFFBD"/>
<path d="M143.406 247.114C143.42 247.09 143.432 247.064 143.441 247.038L143.406 247.114Z" fill="#FFFFBD"/>
<path d="M140.861 289.387C140.885 289.364 140.894 289.326 140.911 289.297C140.894 289.326 140.879 289.358 140.861 289.387Z" fill="#FFFFBD"/>
<path d="M149.84 277.595C149.826 277.606 149.813 277.619 149.802 277.633L149.84 277.595Z" fill="#FFFFBD"/>
<path d="M149.319 205.177C149.351 205.145 149.382 205.113 149.411 205.084C149.379 205.11 149.348 205.142 149.319 205.177Z" fill="#FFFFBD"/>
<path d="M107.785 201.868L107.803 201.85C107.791 201.86 107.78 201.87 107.77 201.883L107.785 201.868Z" fill="#FFFFBD"/>
<path d="M103.203 208.461L103.16 208.47C103.175 208.472 103.19 208.469 103.203 208.461Z" fill="#FFFFBD"/>
<path d="M169.161 170.547C169.185 170.525 169.209 170.502 169.231 170.477C169.206 170.499 169.183 170.523 169.161 170.547Z" fill="#FFFFBD"/>
<path d="M77.7699 211.975L77.8248 211.996L77.9258 212.027L77.9806 212.048C90.7435 212.576 104.165 211.775 115.994 206.395L115.847 206.456C124.368 202.875 132.057 197.804 140.095 193.308L139.902 193.415C156.452 184.337 170.931 172.065 187.103 162.499C196.399 159.848 206.776 160.959 216.456 160.305L216.216 160.302C216.496 160.3 216.793 160.303 217.053 160.309C202.021 167.557 186.423 174.325 173.52 185.125C173.539 185.103 173.559 185.083 173.581 185.064C173.54 185.105 173.5 185.145 173.431 185.162C173.451 185.142 173.468 185.125 173.485 185.107C164.904 191.377 156.254 197.97 148.915 205.667C148.947 205.635 148.976 205.606 149.011 205.572C146.611 208.239 144.024 210.73 141.268 213.026L141.308 212.985C134.048 217.356 126.514 221.313 118.201 223.379C109.635 225.67 102.256 231.061 95.2686 236.343C81.0694 246.85 77.1496 264.777 73.1408 280.973C69.5529 292.652 66.0054 304.382 63.1189 316.225C63.0384 316.427 62.8743 316.689 63.0736 316.848C63.3392 316.982 63.4831 316.682 63.6387 316.52C63.6531 316.506 63.6675 316.491 63.6819 316.477L63.6646 316.494L63.9066 316.252L63.8576 316.301C66.2808 313.768 67.7103 310.455 69.9342 307.746C72.4868 304.927 75.6982 302.802 78.3982 300.137C86.7492 292.138 94.4036 283.294 99.56 272.85L99.537 272.873L99.652 272.619L99.6261 272.679C103.103 263.939 104.524 254.525 107.608 245.657C108.47 243.488 109.494 241.118 111.166 239.354C113.22 237.184 115.901 235.774 118.106 233.795C120.477 231.285 121.904 228.015 124.581 225.765L124.538 225.808C129.112 221.813 134.726 219.417 139.76 216.117C117.147 241.838 98.6765 272.427 91.8411 306.278L91.8554 306.206C91.8439 306.275 91.8296 306.347 91.8211 306.419L91.8353 306.318C90.9359 309.729 89.7174 313.047 88.196 316.228L88.2621 316.086C87.8076 317.078 87.3473 318.053 86.8783 319.048L86.9819 318.817C79.8617 334.322 77.0631 357.745 88.6555 371.718L88.6295 371.692C89.3956 372.769 90.0897 373.895 90.8327 374.984L90.7489 374.871C91.6511 376.315 92.7983 377.572 93.7813 378.958L93.7408 378.918C93.894 379.123 94.0386 379.331 94.186 379.542L94.1051 379.426C94.4366 379.912 94.7186 380.429 94.9468 380.971L94.9121 380.89C94.9989 381.069 95.0973 381.254 95.1898 381.433L95.1522 381.361C95.8551 382.64 96.249 387.915 96.7906 383.045L96.7848 383.086L96.8133 382.803C96.8332 382.581 96.8473 382.359 96.847 382.134L96.8527 382.07C96.6537 377.883 94.6372 373.988 92.7451 370.292C91.1035 364.121 89.7647 357.791 90.157 351.366C90.9978 341.638 95.8645 332.46 93.7272 322.491C93.7388 322.549 93.7418 322.609 93.7505 322.67L93.6833 322.061C92.7952 305.613 97.7282 290.036 104.315 275.185C105.362 287.129 107.64 299.02 105.432 311.011C102.481 324.197 104.979 336.596 108.811 349.308C109.208 350.068 111.112 356.161 111.642 353.62C111.622 332.49 128.529 321.009 118.905 297.203L118.836 297.012L118.798 296.917L118.839 297.021C116.503 291.844 114.45 286.57 110.993 282L111.025 282.032C109.64 279.742 108.71 277.21 107.633 274.768L107.737 275.045L107.236 273.772L107.274 273.885C107.245 273.792 107.208 273.703 107.173 273.61L107.231 273.755C104.536 267.896 114.758 254.502 117.815 248.833C130.841 228.948 145.932 210.187 164.433 195.125C149.416 210.558 150.182 228.804 141.709 246.742L141.732 246.69C141.703 246.76 141.672 246.826 141.637 246.895L141.663 246.869C141.634 246.938 141.6 247.008 141.571 247.077L141.628 246.95C141.6 247.019 141.565 247.088 141.531 247.158C141.557 247.132 141.565 247.083 141.582 247.042C139.401 251.2 138.807 255.902 137.642 260.391C136.021 264.953 134.079 269.506 133.823 274.408C133.375 282.19 136.063 289.851 134.983 297.629C134.987 297.608 134.992 297.588 134.998 297.568C133.82 307.645 135.022 302.497 137.759 297.194C141.634 290.863 146.078 284.83 149.505 278.224L149.482 278.247L149.545 278.12C149.577 278.089 149.589 278.042 149.609 277.999L149.588 278.019C154.916 266.41 162.648 254.83 157.491 241.726C154.599 234.448 150.97 227.137 153.386 219.093C153.369 219.168 153.354 219.246 153.334 219.324L153.403 219.012L153.509 218.507L153.481 218.634C153.506 218.533 153.526 218.432 153.547 218.332L153.535 218.383C154.156 216.699 154.846 215.05 155.6 213.429C155.568 213.507 155.531 213.579 155.496 213.654L155.663 213.296C155.649 213.324 155.637 213.351 155.626 213.38L155.724 213.161L155.704 213.181C159.42 204.622 165.672 197.631 171.672 190.625C171.643 190.651 171.615 190.679 171.589 190.708C176.901 184.333 184.593 180.188 191.642 175.913C191.628 175.924 191.616 175.937 191.605 175.951C191.68 175.91 191.752 175.867 191.824 175.83L191.665 175.919C208.556 166.87 225.804 158.232 244.368 153.017C246.816 151.621 250.469 151.73 252.347 149.753C253.015 148.594 251.563 147.816 250.556 148.077L250.819 148.058C250.677 148.072 250.533 148.077 250.389 148.095L250.452 148.089C250.061 148.128 249.675 148.21 249.301 148.333L249.393 148.298C246.117 149.315 242.87 150.349 239.579 151.329C239.636 151.306 239.694 151.283 239.755 151.263C232.057 153.604 224.902 158.516 216.687 158.468L216.929 158.468C203.421 159.073 191.152 152.567 177.9 151.418C168.799 150.765 160.388 154.928 152.75 159.376C139.513 164.488 129.757 174.747 119.934 184.558L120.09 184.402C110.254 195.279 98.0973 203.327 84.7691 209.281C84.7893 209.261 84.8239 209.255 84.8499 209.247C82.6524 210.127 80.4551 211.191 78.13 211.557C78.0644 211.559 77.9987 211.555 77.9338 211.546C77.8793 211.533 77.8222 211.541 77.773 211.567C77.7238 211.594 77.6858 211.637 77.6659 211.689C77.646 211.741 77.6456 211.799 77.6647 211.851C77.6838 211.904 77.7211 211.948 77.7699 211.975ZM99.1407 267.924C94.0662 283.4 81.6686 294.734 69.8788 305.212C81.378 284.767 92.649 264.066 105.511 244.437C103.306 252.241 101.502 260.165 99.1407 267.924ZM118.264 231.204C116.522 234.073 113.769 236.034 111.022 237.868C113.638 235.252 116.295 232.682 118.868 230.022C118.67 230.417 118.468 230.809 118.264 231.204ZM120.349 225.953C105.969 237.322 96.8615 253.335 88.2904 269.227C81.8581 281.311 74.1926 292.681 68.2973 305.054C69.2504 301.489 70.5701 298.008 71.2547 294.388C71.2433 294.434 71.2376 294.48 71.2261 294.521C71.2719 294.284 71.3206 294.039 71.3549 293.814C76.9498 276.933 78.4329 257.929 90.1918 243.836C90.1457 243.882 90.1025 243.925 90.0564 243.971C96.634 236.816 105.086 231.131 113.919 227.222L113.844 227.245C114.248 227.13 114.652 227.015 115.064 226.903L114.989 226.926C116.953 226.499 118.883 225.985 120.847 225.587C120.689 225.717 120.513 225.829 120.349 225.953ZM92.3414 315.555C91.7632 321.121 93.2482 326.674 92.6296 332.222C90.2318 342.768 86.5589 353.479 89.765 364.333C87.276 358.824 87.4783 352.75 86.7576 346.872C86.4393 344.052 86.4577 341.205 86.8124 338.392L86.7666 338.651C87.8867 330.597 90.6895 322.946 92.3089 315.01L92.3414 315.555ZM87.8723 324.306C86.1594 331.394 83.9216 338.659 84.8521 346.021C84.9252 346.739 85.0185 347.455 85.1003 348.177L85.0944 348.113L85.1178 348.344L85.112 348.298C85.9151 353.198 85.9191 358.291 87.8299 362.945L87.8009 362.876L87.8559 363.017L87.8357 362.968L88.1137 363.695L88.0528 363.531C88.3859 364.411 88.7333 365.289 89.075 366.167L89.049 366.141L89.1069 366.297L89.0896 366.279C89.5153 367.431 90.0477 368.546 90.5023 369.692L90.4705 369.608L90.5284 369.758L90.5081 369.738C91.2298 372.102 92.6551 374.109 93.9246 376.197C92.5979 374.496 91.5998 372.57 90.374 370.797L90.4347 370.857C90.0357 370.274 89.6309 369.696 89.2089 369.13L89.232 369.153C81.1533 358.925 82.6357 345.7 84.0763 333.627L84.0276 333.889C84.9312 327.935 87.4859 322.399 89.8733 316.925C89.4468 319.415 88.5066 321.823 87.8723 324.306ZM109.466 283.914L109.605 284.111L109.432 283.862L109.4 283.831L109.466 283.914ZM108.761 282.932C118.515 296.334 123.693 314.854 115.124 330.091L115.17 329.993C113.462 334.048 112.539 338.369 111.206 342.545C111.123 341.31 110.914 340.081 110.863 338.843L110.869 339.01C110.842 338.407 110.815 337.804 110.786 337.198L110.791 337.273C110.472 331.675 109.241 326.081 111.06 320.599L111.049 320.645C114.999 307.94 112.185 295.151 108.668 282.736C108.689 282.797 108.729 282.877 108.761 282.932ZM106.271 280.846C109.702 293.664 112.952 306.947 109.429 320.132C106.68 328.955 110.79 338.067 110.08 346.924C108.754 339.322 105.4 331.997 105.773 324.175C107.369 309.491 109.524 294.761 106.134 280.115C106.184 280.355 106.221 280.6 106.271 280.846ZM140.363 290.342L140.326 290.379C140.34 290.365 140.355 290.351 140.355 290.322L140.363 290.342ZM140.559 289.961C140.524 289.996 140.51 290.051 140.484 290.1C140.507 290.077 140.513 290.042 140.53 290.013C140.562 289.982 140.573 289.924 140.596 289.883L140.539 289.993L140.559 289.961ZM150.524 229.641C151.971 237.082 156.974 243.416 156.947 251.313C157.257 256.083 155.133 260.322 153.278 264.552C150.134 273.597 145.41 281.897 140.507 290.065L140.536 290.036C139.631 291.798 138.628 293.509 137.534 295.16C145.272 273.737 144.781 250.622 150.442 228.735C150.448 229.023 150.471 229.341 150.524 229.641ZM144.349 249.043C143.308 257.406 142.604 265.813 141.094 274.112L141.131 273.873C140.235 279.985 138.845 286.013 136.975 291.898C137.044 289.518 136.498 287.174 136.224 284.808L136.23 284.866L136.203 284.638C136.212 284.681 136.212 284.721 136.218 284.762C134.736 276.779 135.87 268.854 139.086 261.46C140.398 256.64 140.974 251.592 143.406 247.131L143.377 247.16L143.472 246.95L143.429 247.045C143.958 245.891 144.525 244.758 145.043 243.605C145.03 243.64 145.015 243.675 144.997 243.709L145.043 243.616C144.821 245.434 144.578 247.237 144.349 249.043ZM174.188 166.873C174.228 166.832 174.268 166.792 174.323 166.766C172.643 168.001 170.904 169.156 169.276 170.461L169.296 170.441C166.609 172.428 164.385 174.958 161.624 176.859C161.664 176.819 161.707 176.775 161.748 176.735C161.096 177.236 160.407 177.7 159.756 178.201L159.776 178.181C159.26 178.564 158.75 178.947 158.234 179.336L158.384 179.221C157.891 179.592 157.404 179.97 156.908 180.344C156.951 180.301 156.994 180.258 157.058 180.235C156.79 180.433 156.533 180.638 156.268 180.839C156.3 180.808 156.332 180.776 156.363 180.744C139.686 191.816 122.553 202.76 103.18 208.438L103.214 208.432C103.164 208.441 103.114 208.452 103.064 208.467L103.136 208.446C98.8787 209.237 94.612 209.875 90.3367 210.509C90.7521 210.395 91.1674 210.285 91.5828 210.165C91.5345 210.182 91.4855 210.196 91.4357 210.208C97.5371 208.427 103.4 205.918 108.897 202.733L108.879 202.75L108.937 202.692L108.911 202.718C109.182 202.557 109.45 202.393 109.715 202.232C109.715 202.232 109.695 202.252 109.687 202.26C110.344 201.863 111.001 201.454 111.659 201.051C111.615 201.094 111.552 201.117 111.5 201.152C117.35 197.874 122.419 193.457 128.015 189.803C127.977 189.841 127.923 189.861 127.874 189.887C127.926 189.835 128.003 189.809 128.064 189.772L128.027 189.809C128.101 189.763 128.174 189.72 128.251 189.671C128.229 189.691 128.208 189.712 128.188 189.734C128.231 189.691 128.295 189.668 128.349 189.636L128.266 189.685C128.295 189.656 128.344 189.642 128.378 189.619C128.373 189.624 128.368 189.628 128.364 189.633C128.41 189.587 128.473 189.564 128.528 189.533C128.473 189.587 128.401 189.613 128.335 189.651C143.27 181.142 159.139 174.524 174.412 166.688C174.346 166.749 174.271 166.806 174.188 166.873ZM86.6636 210.525C99.7925 204.399 111.718 196.062 121.494 185.328C121.442 185.38 121.393 185.429 121.341 185.48C124.683 181.907 128.56 178.903 131.925 175.364C131.87 175.419 131.819 175.471 131.764 175.526C141.754 165.414 155.341 159.339 168.42 154.264C179.265 151.209 190.201 155.708 200.417 159.066C185.354 158.087 172.532 165.529 159.603 172.072C148.371 176.803 137.602 182.591 126.974 188.521C120.566 192.958 114.6 198.005 107.79 201.857L107.871 201.811C107.831 201.851 107.767 201.874 107.712 201.906L107.744 201.874C100.989 205.821 93.5946 208.569 86.0868 210.714C86.2974 210.648 86.4848 210.588 86.6723 210.516L86.6636 210.525Z" fill="#FFFFBD"/>
<path d="M137.773 297.173C137.765 297.178 137.758 297.185 137.753 297.194L137.773 297.173Z" fill="#FFFFBD"/>
<path d="M137.687 297.345C137.676 297.363 137.667 297.382 137.661 297.402C137.661 297.402 137.693 297.351 137.687 297.345Z" fill="#FFFFBD"/>
<path d="M110.074 352.484C110.063 352.452 110.049 352.421 110.034 352.392L110.074 352.484Z" fill="#FFFFBD"/>
<path d="M183.014 192.365C182.948 192.432 182.902 192.524 182.85 192.605L183.014 192.365Z" fill="#FFFFBD"/>
<path d="M195.859 182.78C195.871 182.765 195.884 182.752 195.899 182.74L195.807 182.832L195.859 182.78Z" fill="#FFFFBD"/>
<path d="M205.562 176.123C205.651 176.079 205.744 176.045 205.83 176.005C205.741 176.042 205.651 176.085 205.562 176.123Z" fill="#FFFFBD"/>
<path d="M181.94 197.393L181.975 197.358C181.951 197.381 181.928 197.405 181.902 197.431C181.916 197.42 181.928 197.407 181.94 197.393Z" fill="#FFFFBD"/>
<path d="M198.059 183.498C198.059 183.498 198.039 183.519 198.027 183.531C198.039 183.521 198.05 183.51 198.059 183.498Z" fill="#FFFFBD"/>
<path d="M263.382 182.019C263.319 182.082 263.278 182.163 263.224 182.235C263.278 182.163 263.324 182.094 263.382 182.019Z" fill="#FFFFBD"/>
<path d="M264.242 175.819C264.314 175.747 264.366 175.649 264.423 175.562C264.366 175.643 264.302 175.735 264.242 175.819Z" fill="#FFFFBD"/>
<path d="M285.069 190.583C285.082 190.573 285.094 190.561 285.104 190.548C285.095 190.562 285.083 190.574 285.069 190.583Z" fill="#FFFFBD"/>
<path d="M283.754 197.619L283.873 197.604C283.833 197.606 283.793 197.611 283.754 197.619Z" fill="#FFFFBD"/>
<path d="M356.019 165.869C356.048 165.84 356.103 165.837 356.146 165.817C356.094 165.846 356.051 165.86 356.019 165.869Z" fill="#FFFFBD"/>
<path d="M211.368 143.041C211.409 143.364 211.764 143.31 212.015 143.359L212.079 143.371L212.451 143.432L212.384 143.417C216.18 144.077 220.08 143.356 223.918 143.724C228.056 144.324 231.965 145.951 236.058 146.782C248.481 149.5 261.251 151.061 273.935 149.385L273.901 149.39L274.198 149.342C274.174 149.343 274.15 149.346 274.126 149.35C284.228 147.177 293.665 142.72 303.648 140.111C306.152 139.572 308.939 139.062 311.579 139.502C314.818 140.048 317.743 141.631 320.915 142.429C324.661 143.051 328.509 142.347 332.213 143.416L332.146 143.402C338.597 145.145 344.24 148.777 350.347 151.344C313.026 146.48 273.793 148.331 238.766 162.78C238.711 162.806 238.654 162.829 238.596 162.857L238.703 162.808C235.089 164.055 231.367 164.963 227.583 165.52C226.412 165.709 225.244 165.883 224.084 166.055C205.659 169.091 182.779 180.824 177.245 199.822C177.254 199.811 177.263 199.802 177.274 199.793C176.765 201.146 176.164 202.469 175.632 203.81L175.684 203.666C174.927 205.37 174.482 207.179 173.83 208.924L173.85 208.863C173.758 209.129 173.66 209.388 173.557 209.648C173.577 209.599 173.594 209.553 173.614 209.509C173.376 210.106 173.078 210.677 172.725 211.213C172.745 211.193 172.768 211.17 172.791 211.147C172.679 211.34 172.572 211.539 172.466 211.732L172.509 211.654C171.801 213.079 167.218 216.656 171.984 214.173C171.975 214.185 171.965 214.195 171.953 214.204C172.042 214.155 172.137 214.107 172.23 214.055C172.44 213.937 172.653 213.816 172.858 213.681C172.872 213.664 172.888 213.649 172.904 213.634C176.588 210.893 178.896 206.677 181.092 202.701C185.705 197.436 190.641 192.35 196.738 188.789C206.12 183.597 217.461 182.426 225.224 174.415C225.342 174.297 225.48 174.199 225.61 174.087C240.019 163.231 257.258 158.208 274.838 155.134C264.606 163.383 255.18 172.728 242.907 178.038C229.059 183.397 219.331 193.252 210.113 204.51C209.667 205.331 205.292 210.787 207.931 209.715C227.156 196.794 248.023 205.173 263.771 181.866C263.823 181.814 263.858 181.745 263.898 181.682C263.924 181.656 263.95 181.63 263.961 181.589C263.933 181.618 263.904 181.647 263.892 181.687C267.157 176.423 270.688 171.332 272.72 165.411C273.951 162.753 275.682 160.363 277.239 157.892C277.164 157.967 277.116 158.068 277.052 158.161C277.34 157.751 277.619 157.333 277.905 156.921C277.873 156.953 277.844 156.981 277.827 157.028C277.902 156.953 277.954 156.855 278.014 156.765C277.974 156.806 277.948 156.86 277.919 156.907C281.593 150.875 300.089 151.991 307.129 151.32C333.256 151.035 359.632 153.31 384.76 160.948C361.457 156.703 345.318 168.543 323.777 171.783L323.837 171.774L323.598 171.812L323.641 171.803L323.39 171.846L323.292 171.863C323.338 171.853 323.384 171.845 323.431 171.84C318.287 172.39 313.644 174.732 308.848 176.402C303.694 177.714 298.363 178.728 293.73 181.489C286.369 185.833 281.05 192.961 273.296 196.722C273.296 196.722 273.325 196.693 273.36 196.699C263.461 201.784 268.891 199.722 275.391 198.99C283.539 198.649 291.766 199.026 299.893 198.094L299.873 198.114L300.023 198.097L300.17 198.083L300.138 198.086C313.988 195.845 329.292 195.809 338.049 183.11C342.893 176.036 347.3 168.272 356.111 165.551C356.134 165.528 356.177 165.525 356.215 165.511L356.197 165.528C356.373 165.456 356.549 165.385 356.728 165.316L356.592 165.364C356.699 165.327 356.803 165.287 356.907 165.241C356.89 165.25 356.873 165.258 356.855 165.264C358.764 164.799 360.697 164.421 362.641 164.1L362.376 164.14C362.517 164.12 362.662 164.097 362.803 164.072C362.771 164.08 362.738 164.086 362.705 164.089C362.789 164.074 362.875 164.063 362.962 164.046L362.944 164.063C373.023 162.219 383.254 163.626 393.314 164.823L393.187 164.811C402.263 165.756 410.773 170.225 419.01 174.031L418.967 173.988L419.215 174.115L419.036 174.022C436.142 183.146 453.288 192.761 468.575 205.033C469.045 204.087 469.622 203.199 470.294 202.384C469.34 201.603 468.15 200.684 466.781 199.736C461.245 195.899 453.251 190.729 450.2 186.152L450.345 186.371C441.473 174.44 439.831 159.283 432.733 146.52C427.723 137.834 418.749 132.72 409.994 128.478C397.211 119.562 381.883 116.941 366.924 113.998C351.06 111.671 336.333 105.554 322.772 97.1158C320.617 95.6529 318.298 94.3022 316.533 92.4099C316.489 92.3518 316.45 92.2899 316.417 92.225C316.397 92.1651 316.355 92.1148 316.3 92.0839C316.245 92.0531 316.18 92.044 316.119 92.0584C316.058 92.0727 316.004 92.1096 315.968 92.1617C315.933 92.2137 315.918 92.2773 315.927 92.3398L315.944 92.4033L315.976 92.5159L315.988 92.5678C323.365 104.503 332.36 116.236 344.544 123.706L344.397 123.605C352.905 129.179 362.261 133.079 371.302 137.653L371.088 137.543C389.545 147.067 409.626 152.747 428.304 161.633C436.439 168.477 441.817 178.604 448.369 187.012L448.745 187.572C432.889 178.309 417.115 168.234 399.337 163.083L399.426 163.12L399.305 163.068C388.315 159.097 376.993 155.244 365.475 153.264C365.524 153.266 365.573 153.271 365.622 153.278C361.722 152.723 357.867 151.889 354.085 150.784C345.646 146.845 337.422 142.414 330.428 136.128C323.067 129.724 313.616 126.301 304.502 123.163C286.191 116.655 267.452 124.039 250.235 130.283C237.391 134.152 224.525 138.078 211.968 142.689C211.731 142.741 211.394 142.749 211.368 143.041ZM176.407 207.363C177.137 205.114 178.28 203.029 179.136 200.832L179.105 200.921C179.39 200.209 179.663 199.497 179.916 198.77C184.263 185.177 197.206 178.469 209.086 172.385C208.999 172.425 208.907 172.466 208.817 172.503C214.792 169.689 221.41 168.631 227.866 167.462C225.291 168.604 222.522 169.218 219.871 170.158C212.361 172.929 204.369 175.327 198.236 180.674L198.251 180.66C197.643 181.164 197.049 181.688 196.444 182.201L196.493 182.152C196.438 182.207 196.383 182.262 196.328 182.316C192.363 186.033 187.739 189.143 184.681 193.721C184.701 193.701 184.721 193.681 184.739 193.663C184.701 193.701 184.678 193.753 184.644 193.799C184.656 193.784 184.669 193.771 184.684 193.759C184.52 193.992 184.356 194.22 184.192 194.453C184.238 194.407 184.264 194.352 184.301 194.298C183.705 195.142 183.117 195.995 182.533 196.84L182.562 196.811C182.521 196.852 182.478 196.895 182.461 196.958C182.461 196.958 182.475 196.944 182.481 196.938C181.695 198.031 181.01 199.195 180.255 200.32C180.279 200.299 180.301 200.277 180.322 200.253C180.281 200.294 180.255 200.348 180.224 200.398C180.224 200.398 180.241 200.38 180.25 200.372C178.475 202.406 177.529 204.93 176.407 207.363ZM230.589 168.883C225.168 171.755 221.008 176.487 215.593 179.325C204.513 183.586 192.503 186.778 184.592 196.335C188.07 190.707 193.732 187.195 198.626 182.937C201 180.924 203.605 179.2 206.387 177.8L206.124 177.918C214.149 174.019 222.843 171.89 231.064 168.523C230.906 168.641 230.747 168.759 230.589 168.883ZM212.949 204.193C219.058 198.344 223.659 190.814 231.028 186.38C244.914 179.105 259.162 172.283 270.261 160.947C260.852 171.708 250.871 182.475 236.947 187.24C227.222 190.123 221.452 199.43 212.949 204.193ZM231.457 198.497C226.744 199.419 222.245 201.214 217.636 202.541C218.723 201.714 219.699 200.772 220.806 199.948C220.766 199.988 220.708 200.017 220.662 200.052C221.193 199.66 221.723 199.268 222.25 198.868C222.233 198.889 222.214 198.908 222.193 198.926C227.076 195.199 231.426 190.68 237.535 188.986C237.535 188.986 237.515 189.006 237.492 189.001C251.486 184.83 261.404 174.462 270.539 163.68C270.504 163.755 270.458 163.824 270.424 163.899C264.214 180.949 250.568 196.959 231.454 198.5L231.457 198.497ZM285.608 190.044C285.608 190.044 285.576 190.076 285.562 190.091L285.668 189.984C292.016 183.769 299.906 179.965 308.62 178.387C313.829 176.646 318.762 174.081 324.316 173.567L324.532 173.53C324.495 173.539 324.458 173.546 324.42 173.55C325.796 173.329 327.175 173.152 328.548 172.918C328.507 172.93 328.464 172.937 328.421 172.941C328.461 172.935 328.499 172.932 328.536 172.923C326.752 173.824 324.958 174.705 323.159 175.614C314.904 179.778 306.813 184.285 298.327 187.964C298.407 187.93 298.485 187.892 298.569 187.855C292.45 190.765 286.106 193.178 279.598 195.071C281.824 193.678 283.631 191.727 285.608 190.044ZM328.869 188.465C324.716 191.659 319.552 192.315 314.556 193.209C304.382 195.87 293.918 196.643 283.45 197.154C281.304 197.404 279.146 197.535 276.985 197.546C301.251 191.511 321.998 176.937 345.41 168.722C345.148 168.932 344.877 169.134 344.632 169.362C338.76 175.24 336.079 183.647 328.869 188.465ZM416.375 152.58L416.554 152.638C414.392 151.865 412.276 150.987 410.082 150.298L410.102 150.318C406.638 149.084 402.961 148.606 399.537 147.245L399.725 147.306C398.859 147.016 398.039 146.68 397.176 146.388L397.196 146.408L395.195 145.71L395.389 145.776C394.748 145.551 394.096 145.336 393.461 145.122L393.651 145.185L392.618 144.838L392.759 144.881C372.414 136.448 351.901 127.542 334.797 113.36L334.838 113.4L334.716 113.279L334.777 113.34C331.431 109.953 328.226 106.449 325.019 102.942C325.354 103.231 325.689 103.525 326.033 103.812C331.39 108.256 337.261 112.042 343.519 115.086L343.586 115.117L343.557 115.089L344.498 115.523L344.466 115.491L346.782 116.55L346.594 116.466C353.183 119.793 360.321 121.71 367.097 124.573L366.936 124.498L367.158 124.599L367.103 124.573L367.363 124.695L367.273 124.652L367.461 124.741L367.363 124.695L367.496 124.759L367.481 124.744L367.669 124.834L367.444 124.73C384.387 133.132 400.187 143.532 416.716 152.679L416.375 152.58ZM402.67 142.494C391.442 135.156 379.542 128.881 367.597 122.825C359.632 119.713 351.385 117.356 343.696 113.534L343.549 113.467L343.595 113.484C335.831 109.754 328.784 104.695 322.206 99.1666L322.738 99.554C336.414 107.779 351.337 113.532 367.123 115.885L366.886 115.85C372.194 116.709 377.323 118.404 382.617 119.306L382.365 119.262C397.728 122.165 411.613 130.818 424.307 139.644C433.767 147.658 436.408 160.361 439.643 171.693C431.262 157.399 416.591 150.266 402.67 142.494ZM278.144 145.974C260.933 150.789 242.971 146.445 226.175 142.109C251.875 140.101 277.671 137.704 303.454 137.427C294.989 140.189 286.661 143.386 278.144 145.974ZM323.357 140.958C319.669 141.126 316.194 139.817 312.827 138.433C316.825 139.22 320.799 140.065 324.805 140.786C324.323 140.846 323.841 140.9 323.357 140.958ZM237.458 136.489C256.223 131.286 274.384 121.076 294.383 123.106C304.929 124.696 315.296 128.943 324.294 134.576C324.63 134.859 324.959 135.148 325.3 135.432L325.239 135.371C326.837 136.9 328.492 138.342 330.067 139.888C329.856 139.804 329.651 139.725 329.432 139.639C310.224 133.495 290.034 134.98 270.283 136.886C255.318 138.409 240.248 138.374 225.35 140.564C229.163 139.265 233.124 138.338 236.826 136.762C237.022 136.67 237.244 136.587 237.458 136.489Z" fill="#FFFFBD"/>
<path d="M269.943 165.148L269.851 165.396C269.892 165.292 269.932 165.188 269.966 165.084C269.975 165.069 269.982 165.052 269.987 165.035C269.974 165.074 269.96 165.111 269.943 165.148Z" fill="#FFFFBD"/>
<path d="M283.119 197.202L283.058 197.21L283.131 197.202L283.119 197.202Z" fill="#FFFFBD"/>
<path d="M283.6 197.154L283.43 197.168C283.465 197.168 283.5 197.163 283.537 197.16L283.699 197.143L283.563 197.157L283.6 197.154Z" fill="#FFFFBD"/>
<path d="M274.568 199.588L274.5 199.597C274.523 199.595 274.545 199.592 274.568 199.588Z" fill="#FFFFBD"/>
</svg>
